<svg xmlns="http://www.w3.org/2000/svg" width="980" height="136" viewBox="0 0 980 136" role="img" aria-label="ShareBar preview"><rect width="980" height="136" fill="#F6F5F1"/><text x="20" y="28" font-family="ui-monospace,Menlo,monospace" font-size="12" letter-spacing="1.2" fill="#8a857d">SHARE OR SUMMARIZE WITH AI</text><g transform="translate(20,40)"><rect width="52" height="34" rx="4" fill="#ffffff" stroke="#211f1a" stroke-opacity="0.16"/><g transform="translate(11,9.5) scale(0.625)" fill="#1A1814" fill-opacity="0.85"><path d="M14.234 10.162 22.977 0h-2.072l-7.591 8.824L7.251 0H.258l9.168 13.343L.258 24H2.33l8.016-9.318L16.749 24h6.993zm-2.837 3.299-.929-1.329L3.076 1.56h3.182l5.965 8.532.929 1.329 7.754 11.09h-3.182z"/></g><text x="34" y="21" font-family="ui-monospace,Menlo,monospace" font-size="13" fill="#1A1814">X</text></g><g transform="translate(80,40)"><rect width="89" height="34" rx="4" fill="#ffffff" stroke="#211f1a" stroke-opacity="0.16" stroke-dasharray="4 3"/><g transform="translate(11,9.5) scale(0.625)" fill="#1A1814" fill-opacity="0.85"><path d="m4.7144 15.9555 4.7174-2.6471.079-.2307-.079-.1275h-.2307l-.7893-.0486-2.6956-.0729-2.3375-.0971-2.2646-.1214-.5707-.1215-.5343-.7042.0546-.3522.4797-.3218.686.0608 1.5179.1032 2.2767.1578 1.6514.0972 2.4468.255h.3886l.0546-.1579-.1336-.0971-.1032-.0972L6.973 9.8356l-2.55-1.6879-1.3356-.9714-.7225-.4918-.3643-.4614-.1578-1.0078.6557-.7225.8803.0607.2246.0607.8925.686 1.9064 1.4754 2.4893 1.8336.3643.3035.1457-.1032.0182-.0728-.164-.2733-1.3539-2.4467-1.445-2.4893-.6435-1.032-.17-.6194c-.0607-.255-.1032-.4674-.1032-.7285L6.287.1335 6.6997 0l.9957.1336.419.3642.6192 1.4147 1.0018 2.2282 1.5543 3.0296.4553.8985.2429.8318.091.255h.1579v-.1457l.1275-1.706.2368-2.0947.2307-2.6957.0789-.7589.3764-.9107.7468-.4918.5828.2793.4797.686-.0668.4433-.2853 1.8517-.5586 2.9021-.3643 1.9429h.2125l.2429-.2429.9835-1.3053 1.6514-2.0643.7286-.8196.85-.9046.5464-.4311h1.0321l.759 1.1293-.34 1.1657-1.0625 1.3478-.8804 1.1414-1.2628 1.7-.7893 1.36.0729.1093.1882-.0183 2.8535-.607 1.5421-.2794 1.8396-.3157.8318.3886.091.3946-.3278.8075-1.967.4857-2.3072.4614-3.4364.8136-.0425.0304.0486.0607 1.5482.1457.6618.0364h1.621l3.0175.2247.7892.522.4736.6376-.079.4857-1.2142.6193-1.6393-.3886-3.825-.9107-1.3113-.3279h-.1822v.1093l1.0929 1.0686 2.0035 1.8092 2.5075 2.3314.1275.5768-.3218.4554-.34-.0486-2.2039-1.6575-.85-.7468-1.9246-1.621h-.1275v.17l.4432.6496 2.3436 3.5214.1214 1.0807-.17.3521-.6071.2125-.6679-.1214-1.3721-1.9246L14.38 17.959l-1.1414-1.9428-.1397.079-.674 7.2552-.3156.3703-.7286.2793-.6071-.4614-.3218-.7468.3218-1.4753.3886-1.9246.3157-1.53.2853-1.9004.17-.6314-.0121-.0425-.1397.0182-1.4328 1.9672-2.1796 2.9446-1.7243 1.8456-.4128.164-.7164-.3704.0667-.6618.4008-.5889 2.386-3.0357 1.4389-1.882.929-1.0868-.0062-.1579h-.0546l-6.3385 4.1164-1.1293.1457-.4857-.4554.0608-.7467.2307-.2429 1.9064-1.3114Z"/></g><text x="34" y="21" font-family="ui-monospace,Menlo,monospace" font-size="13" fill="#1A1814">Claude</text></g><g transform="translate(177,40)"><rect width="104" height="34" rx="4" fill="#ffffff" stroke="#211f1a" stroke-opacity="0.16"/><g transform="translate(11,9.5) scale(0.625)" fill="#1A1814" fill-opacity="0.85"><path d="M20.447 20.452h-3.554v-5.569c0-1.328-.027-3.037-1.852-3.037-1.853 0-2.136 1.445-2.136 2.939v5.667H9.351V9h3.414v1.561h.046c.477-.9 1.637-1.85 3.37-1.85 3.601 0 4.267 2.37 4.267 5.455v6.286zM5.337 7.433c-1.144 0-2.063-.926-2.063-2.065 0-1.138.92-2.063 2.063-2.063 1.14 0 2.064.925 2.064 2.063 0 1.139-.925 2.065-2.064 2.065zm1.782 13.019H3.555V9h3.564v11.452zM22.225 0H1.771C.792 0 0 .774 0 1.729v20.542C0 23.227.792 24 1.771 24h20.451C23.2 24 24 23.227 24 22.271V1.729C24 .774 23.2 0 22.222 0h.003z"/></g><text x="34" y="21" font-family="ui-monospace,Menlo,monospace" font-size="13" fill="#1A1814">LinkedIn</text></g><g transform="translate(289,40)"><rect width="97" height="34" rx="4" fill="#ffffff" stroke="#211f1a" stroke-opacity="0.16" stroke-dasharray="4 3"/><g transform="translate(11,9.5) scale(0.625)" fill="#1A1814" fill-opacity="0.85"><path d="M22.2819 9.8211a5.9847 5.9847 0 0 0-.5157-4.9108 6.0462 6.0462 0 0 0-6.5098-2.9A6.0651 6.0651 0 0 0 4.9807 4.1818a5.9847 5.9847 0 0 0-3.9977 2.9 6.0462 6.0462 0 0 0 .7427 7.0966 5.98 5.98 0 0 0 .511 4.9107 6.051 6.051 0 0 0 6.5146 2.9001A5.9847 5.9847 0 0 0 13.2599 24a6.0557 6.0557 0 0 0 5.7718-4.2058 5.9894 5.9894 0 0 0 3.9977-2.9001 6.0557 6.0557 0 0 0-.7475-7.0729zm-9.022 12.6081a4.4755 4.4755 0 0 1-2.8764-1.0408l.1419-.0804 4.7783-2.7582a.7948.7948 0 0 0 .3927-.6813v-6.7369l2.02 1.1686a.071.071 0 0 1 .038.052v5.5826a4.504 4.504 0 0 1-4.4945 4.4944zm-9.6607-4.1254a4.4708 4.4708 0 0 1-.5346-3.0137l.142.0852 4.783 2.7582a.7712.7712 0 0 0 .7806 0l5.8428-3.3685v2.3324a.0804.0804 0 0 1-.0332.0615L9.74 19.9502a4.4992 4.4992 0 0 1-6.1408-1.6464zM2.3408 7.8956a4.485 4.485 0 0 1 2.3655-1.9728V11.6a.7664.7664 0 0 0 .3879.6765l5.8144 3.3543-2.0201 1.1685a.0757.0757 0 0 1-.071 0l-4.8303-2.7865A4.504 4.504 0 0 1 2.3408 7.872zm16.5963 3.8558L13.1038 8.364 15.1192 7.2a.0757.0757 0 0 1 .071 0l4.8303 2.7913a4.4944 4.4944 0 0 1-.6765 8.1042v-5.6772a.79.79 0 0 0-.407-.667zm2.0107-3.0231l-.142-.0852-4.7735-2.7818a.7759.7759 0 0 0-.7854 0L9.409 9.2297V6.8974a.0662.0662 0 0 1 .0284-.0615l4.8303-2.7866a4.4992 4.4992 0 0 1 6.6802 4.66zM8.3065 12.863l-2.02-1.1638a.0804.0804 0 0 1-.038-.0567V6.0742a4.4992 4.4992 0 0 1 7.3757-3.4537l-.142.0805L8.704 5.459a.7948.7948 0 0 0-.3927.6813zm1.0976-2.3654l2.602-1.4998 2.6069 1.4998v2.9994l-2.5974 1.4997-2.6067-1.4997Z"/></g><text x="34" y="21" font-family="ui-monospace,Menlo,monospace" font-size="13" fill="#1A1814">ChatGPT</text></g><g transform="translate(394,40)"><rect width="104" height="34" rx="4" fill="#ffffff" stroke="#211f1a" stroke-opacity="0.16"/><g transform="translate(11,9.5) scale(0.625)" fill="#1A1814" fill-opacity="0.85"><path d="M9.101 23.691v-7.98H6.627v-3.667h2.474v-1.58c0-4.085 1.848-5.978 5.858-5.978.401 0 .955.042 1.468.103a8.68 8.68 0 0 1 1.141.195v3.325a8.623 8.623 0 0 0-.653-.036 26.805 26.805 0 0 0-.733-.009c-.707 0-1.259.096-1.675.309a1.686 1.686 0 0 0-.679.622c-.258.42-.374.995-.374 1.752v1.297h3.919l-.386 2.103-.287 1.564h-3.246v8.245C19.396 23.238 24 18.179 24 12.044c0-6.627-5.373-12-12-12s-12 5.373-12 12c0 5.628 3.874 10.35 9.101 11.647Z"/></g><text x="34" y="21" font-family="ui-monospace,Menlo,monospace" font-size="13" fill="#1A1814">Facebook</text></g><g transform="translate(506,40)"><rect width="89" height="34" rx="4" fill="#ffffff" stroke="#211f1a" stroke-opacity="0.16" stroke-dasharray="4 3"/><g transform="translate(11,9.5) scale(0.625)" fill="#1A1814" fill-opacity="0.85"><path d="M11.04 19.32Q12 21.51 12 24q0-2.49.93-4.68.96-2.19 2.58-3.81t3.81-2.55Q21.51 12 24 12q-2.49 0-4.68-.93a12.3 12.3 0 0 1-3.81-2.58 12.3 12.3 0 0 1-2.58-3.81Q12 2.49 12 0q0 2.49-.96 4.68-.93 2.19-2.55 3.81a12.3 12.3 0 0 1-3.81 2.58Q2.49 12 0 12q2.49 0 4.68.96 2.19.93 3.81 2.55t2.55 3.81"/></g><text x="34" y="21" font-family="ui-monospace,Menlo,monospace" font-size="13" fill="#1A1814">Gemini</text></g><g transform="translate(603,40)"><rect width="104" height="34" rx="4" fill="#ffffff" stroke="#211f1a" stroke-opacity="0.16"/><g transform="translate(11,9.5) scale(0.625)" fill="#1A1814" fill-opacity="0.85"><path d="M17.472 14.382c-.297-.149-1.758-.867-2.03-.967-.273-.099-.471-.148-.67.15-.197.297-.767.966-.94 1.164-.173.199-.347.223-.644.075-.297-.15-1.255-.463-2.39-1.475-.883-.788-1.48-1.761-1.653-2.059-.173-.297-.018-.458.13-.606.134-.133.298-.347.446-.52.149-.174.198-.298.298-.497.099-.198.05-.371-.025-.52-.075-.149-.669-1.612-.916-2.207-.242-.579-.487-.5-.669-.51-.173-.008-.371-.01-.57-.01-.198 0-.52.074-.792.372-.272.297-1.04 1.016-1.04 2.479 0 1.462 1.065 2.875 1.213 3.074.149.198 2.096 3.2 5.077 4.487.709.306 1.262.489 1.694.625.712.227 1.36.195 1.871.118.571-.085 1.758-.719 2.006-1.413.248-.694.248-1.289.173-1.413-.074-.124-.272-.198-.57-.347m-5.421 7.403h-.004a9.87 9.87 0 01-5.031-1.378l-.361-.214-3.741.982.998-3.648-.235-.374a9.86 9.86 0 01-1.51-5.26c.001-5.45 4.436-9.884 9.888-9.884 2.64 0 5.122 1.03 6.988 2.898a9.825 9.825 0 012.893 6.994c-.003 5.45-4.437 9.884-9.885 9.884m8.413-18.297A11.815 11.815 0 0012.05 0C5.495 0 .16 5.335.157 11.892c0 2.096.547 4.142 1.588 5.945L.057 24l6.305-1.654a11.882 11.882 0 005.683 1.448h.005c6.554 0 11.89-5.335 11.893-11.893a11.821 11.821 0 00-3.48-8.413Z"/></g><text x="34" y="21" font-family="ui-monospace,Menlo,monospace" font-size="13" fill="#1A1814">WhatsApp</text></g><g transform="translate(715,40)"><rect width="119" height="34" rx="4" fill="#ffffff" stroke="#211f1a" stroke-opacity="0.16" stroke-dasharray="4 3"/><g transform="translate(11,9.5) scale(0.625)" fill="#1A1814" fill-opacity="0.85"><path d="M22.3977 7.0896h-2.3106V.0676l-7.5094 6.3542V.1577h-1.1554v6.1966L4.4904 0v7.0896H1.6023v10.3976h2.8882V24l6.932-6.3591v6.2005h1.1554v-6.0469l6.9318 6.1807v-6.4879h2.8882V7.0896zm-3.4657-4.531v4.531h-5.355l5.355-4.531zm-13.2862.0676 4.8691 4.4634H5.6458V2.6262zM2.7576 16.332V8.245h7.8476l-6.1149 6.1147v1.9723H2.7576zm2.8882 5.0404v-3.8852h.0001v-2.6488l5.7763-5.7764v7.0111l-5.7764 5.2993zm12.7086.0248-5.7766-5.1509V9.0618l5.7766 5.7766v6.5588zm2.8882-5.0652h-1.733v-1.9723L13.3948 8.245h7.8478v8.087z"/></g><text x="34" y="21" font-family="ui-monospace,Menlo,monospace" font-size="13" fill="#1A1814">Perplexity</text></g><g transform="translate(842,40)"><rect width="104" height="34" rx="4" fill="#ffffff" stroke="#211f1a" stroke-opacity="0.16"/><g transform="translate(11,9.5) scale(0.625)" fill="#1A1814" fill-opacity="0.85"><path d="M11.944 0A12 12 0 0 0 0 12a12 12 0 0 0 12 12 12 12 0 0 0 12-12A12 12 0 0 0 12 0a12 12 0 0 0-.056 0zm4.962 7.224c.1-.002.321.023.465.14a.506.506 0 0 1 .171.325c.016.093.036.306.02.472-.18 1.898-.962 6.502-1.36 8.627-.168.9-.499 1.201-.82 1.23-.696.065-1.225-.46-1.9-.902-1.056-.693-1.653-1.124-2.678-1.8-1.185-.78-.417-1.21.258-1.91.177-.184 3.247-2.977 3.307-3.23.007-.032.014-.15-.056-.212s-.174-.041-.249-.024c-.106.024-1.793 1.14-5.061 3.345-.48.33-.913.49-1.302.48-.428-.008-1.252-.241-1.865-.44-.752-.245-1.349-.374-1.297-.789.027-.216.325-.437.893-.663 3.498-1.524 5.83-2.529 6.998-3.014 3.332-1.386 4.025-1.627 4.476-1.635z"/></g><text x="34" y="21" font-family="ui-monospace,Menlo,monospace" font-size="13" fill="#1A1814">Telegram</text></g><g transform="translate(20,82)"><rect width="75" height="34" rx="4" fill="#ffffff" stroke="#211f1a" stroke-opacity="0.16" stroke-dasharray="4 3"/><g transform="translate(11,9.5) scale(0.625)" fill="#1A1814" fill-opacity="0.85"><path d="M2.4 4.8h3.36L12 13.44 18.24 4.8h3.36L13.68 15.36 21.6 24h-3.36L12 16.56 5.76 24H2.4l7.92-8.64z"/></g><text x="34" y="21" font-family="ui-monospace,Menlo,monospace" font-size="13" fill="#1A1814">Grok</text></g><g transform="translate(103,82)"><rect width="82" height="34" rx="4" fill="#ffffff" stroke="#211f1a" stroke-opacity="0.16"/><g transform="translate(11,9.5) scale(0.625)" fill="#1A1814" fill-opacity="0.85"><path d="M24 5.457v13.909c0 .904-.732 1.636-1.636 1.636h-3.819V11.73L12 16.64l-6.545-4.91v9.273H1.636A1.636 1.636 0 0 1 0 19.366V5.457c0-2.023 2.309-3.178 3.927-1.964L5.455 4.64 12 9.548l6.545-4.91 1.528-1.145C21.69 2.28 24 3.434 24 5.457z"/></g><text x="34" y="21" font-family="ui-monospace,Menlo,monospace" font-size="13" fill="#1A1814">Email</text></g><g transform="translate(193,82)"><rect width="104" height="34" rx="4" fill="#ffffff" stroke="#211f1a" stroke-opacity="0.16" stroke-dasharray="4 3"/><g transform="translate(11,9.5) scale(0.625)" fill="#1A1814" fill-opacity="0.85"><path d="M12 1.5C6.21 1.5 1.5 6.21 1.5 12S6.21 22.5 12 22.5 22.5 17.79 22.5 12 17.79 1.5 12 1.5zm0 3c4.14 0 7.5 3.36 7.5 7.5 0 1.71-.57 3.29-1.54 4.55l-2.13-2.13c.56-.72.89-1.53.89-2.42A4.24 4.24 0 0 0 12 7.75 4.24 4.24 0 0 0 7.75 12c0 .89.33 1.7.89 2.42l-2.13 2.13A7.44 7.44 0 0 1 4.5 12c0-4.14 3.36-7.5 7.5-7.5zm0 5.25A2.25 2.25 0 1 1 12 14.25 2.25 2.25 0 0 1 12 9.75z"/></g><text x="34" y="21" font-family="ui-monospace,Menlo,monospace" font-size="13" fill="#1A1814">DeepSeek</text></g><g transform="translate(305,82)"><rect width="97" height="34" rx="4" fill="#ffffff" stroke="#211f1a" stroke-opacity="0.16" stroke-dasharray="4 3"/><g transform="translate(11,9.5) scale(0.625)" fill="#1A1814" fill-opacity="0.85"><path d="M17.143 3.429v3.428h-3.429v3.429h-3.428V6.857H6.857V3.43H3.43v13.714H0v3.428h10.286v-3.428H6.857v-3.429h3.429v3.429h3.429v-3.429h3.428v3.429h-3.428v3.428H24v-3.428h-3.43V3.429z"/></g><text x="34" y="21" font-family="ui-monospace,Menlo,monospace" font-size="13" fill="#1A1814">Mistral</text></g><g transform="translate(410,82)"><rect width="97" height="34" rx="4" fill="#ffffff" stroke="#211f1a" stroke-opacity="0.16" stroke-dasharray="4 3"/><g transform="translate(11,9.5) scale(0.625)" fill="#1A1814" fill-opacity="0.85"><path d="M23.922 16.997C23.061 18.492 18.063 22.02 12 22.02 5.937 22.02.939 18.492.078 16.997A.641.641 0 0 1 0 16.741v-2.869a.883.883 0 0 1 .053-.22c.372-.935 1.347-2.292 2.605-2.656.167-.429.414-1.055.644-1.517a10.098 10.098 0 0 1-.052-1.086c0-1.331.282-2.499 1.132-3.368.397-.406.89-.717 1.474-.952C7.255 2.937 9.248 1.98 11.978 1.98c2.731 0 4.767.957 6.166 2.093.584.235 1.077.546 1.474.952.85.869 1.132 2.037 1.132 3.368 0 .368-.014.733-.052 1.086.23.462.477 1.088.644 1.517 1.258.364 2.233 1.721 2.605 2.656a.841.841 0 0 1 .053.22v2.869a.641.641 0 0 1-.078.256Z"/></g><text x="34" y="21" font-family="ui-monospace,Menlo,monospace" font-size="13" fill="#1A1814">Copilot</text></g><g transform="translate(515,82)"><rect width="112" height="34" rx="4" fill="#ffffff" stroke="#211f1a" stroke-opacity="0.16" stroke-dasharray="4 3"/><g transform="translate(11,9.5) scale(0.625)" fill="#1A1814" fill-opacity="0.85"><path d="M12.48 10.92v3.28h7.84c-.24 1.84-.853 3.187-1.787 4.133-1.147 1.147-2.933 2.4-6.053 2.4-4.827 0-8.6-3.893-8.6-8.72s3.773-8.72 8.6-8.72c2.6 0 4.507 1.027 5.907 2.347l2.307-2.307C18.747 1.44 16.133 0 12.48 0 5.867 0 .307 5.387.307 12s5.56 12 12.173 12c3.573 0 6.267-1.173 8.373-3.36 2.16-2.16 2.84-5.213 2.84-7.667 0-.76-.053-1.467-.173-2.053H12.48z"/></g><text x="34" y="21" font-family="ui-monospace,Menlo,monospace" font-size="13" fill="#1A1814">Google AI</text></g></svg>